<svg xmlns="http://www.w3.org/2000/svg" xmlns:xlink="http://www.w3.org/1999/xlink" width="377" zoomAndPan="magnify" viewBox="0 0 282.75 88.499997" height="118" preserveAspectRatio="xMidYMid meet" version="1.0"><defs><g/></defs><g fill="#000000" fill-opacity="1"><g transform="translate(16.636673, 55.292532)"><g><path d="M 36.0625 -20.671875 L 36.0625 -12.65625 C 35.101562 -8.269531 33.015625 -4.953125 29.796875 -2.703125 C 26.578125 -0.453125 22.984375 0.671875 19.015625 0.671875 C 14.035156 0.671875 9.789062 -1.191406 6.28125 -4.921875 C 2.78125 -8.648438 1.03125 -13.15625 1.03125 -18.4375 C 1.03125 -23.800781 2.742188 -28.332031 6.171875 -32.03125 C 9.597656 -35.726562 13.878906 -37.578125 19.015625 -37.578125 C 25.003906 -37.578125 29.742188 -35.472656 33.234375 -31.265625 L 27.734375 -25.234375 C 25.765625 -28.390625 23.019531 -29.96875 19.5 -29.96875 C 16.90625 -29.96875 14.691406 -28.84375 12.859375 -26.59375 C 11.023438 -24.34375 10.109375 -21.625 10.109375 -18.4375 C 10.109375 -15.300781 11.023438 -12.617188 12.859375 -10.390625 C 14.691406 -8.171875 16.90625 -7.0625 19.5 -7.0625 C 21.644531 -7.0625 23.515625 -7.707031 25.109375 -9 C 26.710938 -10.300781 27.515625 -12.03125 27.515625 -14.1875 L 19.015625 -14.1875 L 19.015625 -20.671875 Z M 36.0625 -20.671875 "/></g></g></g><g fill="#000000" fill-opacity="1"><g transform="translate(50.232224, 55.292532)"><g><path d="M 4.84375 -2.71875 C 2.300781 -4.988281 1.03125 -7.898438 1.03125 -11.453125 C 1.03125 -15.003906 2.351562 -17.921875 5 -20.203125 C 7.65625 -22.484375 10.941406 -23.625 14.859375 -23.625 C 18.703125 -23.625 21.941406 -22.472656 24.578125 -20.171875 C 27.222656 -17.878906 28.546875 -14.972656 28.546875 -11.453125 C 28.546875 -7.929688 27.253906 -5.03125 24.671875 -2.75 C 22.085938 -0.46875 18.816406 0.671875 14.859375 0.671875 C 10.734375 0.671875 7.394531 -0.457031 4.84375 -2.71875 Z M 10.984375 -15.34375 C 9.953125 -14.332031 9.4375 -13.035156 9.4375 -11.453125 C 9.4375 -9.867188 9.925781 -8.578125 10.90625 -7.578125 C 11.894531 -6.578125 13.195312 -6.078125 14.8125 -6.078125 C 16.363281 -6.078125 17.632812 -6.582031 18.625 -7.59375 C 19.625 -8.613281 20.125 -9.898438 20.125 -11.453125 C 20.125 -13.035156 19.609375 -14.332031 18.578125 -15.34375 C 17.554688 -16.351562 16.300781 -16.859375 14.8125 -16.859375 C 13.289062 -16.859375 12.015625 -16.351562 10.984375 -15.34375 Z M 10.984375 -15.34375 "/></g></g></g><g fill="#000000" fill-opacity="1"><g transform="translate(76.312191, 55.292532)"><g><path d="M 4.84375 -2.71875 C 2.300781 -4.988281 1.03125 -7.898438 1.03125 -11.453125 C 1.03125 -15.003906 2.351562 -17.921875 5 -20.203125 C 7.65625 -22.484375 10.941406 -23.625 14.859375 -23.625 C 18.703125 -23.625 21.941406 -22.472656 24.578125 -20.171875 C 27.222656 -17.878906 28.546875 -14.972656 28.546875 -11.453125 C 28.546875 -7.929688 27.253906 -5.03125 24.671875 -2.75 C 22.085938 -0.46875 18.816406 0.671875 14.859375 0.671875 C 10.734375 0.671875 7.394531 -0.457031 4.84375 -2.71875 Z M 10.984375 -15.34375 C 9.953125 -14.332031 9.4375 -13.035156 9.4375 -11.453125 C 9.4375 -9.867188 9.925781 -8.578125 10.90625 -7.578125 C 11.894531 -6.578125 13.195312 -6.078125 14.8125 -6.078125 C 16.363281 -6.078125 17.632812 -6.582031 18.625 -7.59375 C 19.625 -8.613281 20.125 -9.898438 20.125 -11.453125 C 20.125 -13.035156 19.609375 -14.332031 18.578125 -15.34375 C 17.554688 -16.351562 16.300781 -16.859375 14.8125 -16.859375 C 13.289062 -16.859375 12.015625 -16.351562 10.984375 -15.34375 Z M 10.984375 -15.34375 "/></g></g></g><g fill="#000000" fill-opacity="1"><g transform="translate(102.392158, 55.292532)"><g><path d="M 4.25 -2.84375 C 2.101562 -5.1875 1.03125 -8.054688 1.03125 -11.453125 C 1.03125 -14.847656 2.101562 -17.722656 4.25 -20.078125 C 6.394531 -22.441406 9.125 -23.625 12.4375 -23.625 C 15.476562 -23.625 17.984375 -22.664062 19.953125 -20.75 L 19.953125 -38.46875 L 27.875 -38.46875 L 27.875 0 L 20.046875 0 L 20.046875 -2.59375 L 19.953125 -2.59375 C 17.984375 -0.414062 15.476562 0.671875 12.4375 0.671875 C 9.125 0.671875 6.394531 -0.5 4.25 -2.84375 Z M 10.984375 -15.34375 C 9.953125 -14.332031 9.4375 -13.035156 9.4375 -11.453125 C 9.4375 -9.867188 9.925781 -8.578125 10.90625 -7.578125 C 11.894531 -6.578125 13.195312 -6.078125 14.8125 -6.078125 C 16.363281 -6.078125 17.632812 -6.582031 18.625 -7.59375 C 19.625 -8.613281 20.125 -9.898438 20.125 -11.453125 C 20.125 -13.035156 19.609375 -14.332031 18.578125 -15.34375 C 17.554688 -16.351562 16.300781 -16.859375 14.8125 -16.859375 C 13.289062 -16.859375 12.015625 -16.351562 10.984375 -15.34375 Z M 10.984375 -15.34375 "/></g></g></g><g fill="#000000" fill-opacity="1"><g transform="translate(129.456307, 55.292532)"><g><path d="M 2.6875 -36.90625 L 14.140625 -36.90625 C 17.597656 -36.90625 20.351562 -36.164062 22.40625 -34.6875 C 24.46875 -33.21875 25.5 -30.828125 25.5 -27.515625 C 25.5 -23.816406 23.960938 -21.175781 20.890625 -19.59375 C 26.140625 -18.664062 28.765625 -15.5625 28.765625 -10.28125 C 28.765625 -7.1875 27.691406 -4.695312 25.546875 -2.8125 C 23.398438 -0.9375 20.445312 0 16.6875 0 L 2.6875 0 Z M 11.09375 -22.453125 L 11.765625 -22.453125 C 13.640625 -22.453125 15.039062 -22.78125 15.96875 -23.4375 C 16.894531 -24.09375 17.359375 -25.164062 17.359375 -26.65625 C 17.359375 -29.164062 15.492188 -30.421875 11.765625 -30.421875 L 11.09375 -30.421875 Z M 11.09375 -6.484375 L 13.734375 -6.484375 C 17.847656 -6.484375 19.90625 -7.859375 19.90625 -10.609375 C 19.90625 -12.242188 19.390625 -13.414062 18.359375 -14.125 C 17.328125 -14.84375 15.785156 -15.203125 13.734375 -15.203125 L 11.09375 -15.203125 Z M 11.09375 -6.484375 "/></g></g></g><g fill="#000000" fill-opacity="1"><g transform="translate(155.759951, 55.292532)"><g><path d="M 4.84375 -2.71875 C 2.300781 -4.988281 1.03125 -7.898438 1.03125 -11.453125 C 1.03125 -15.003906 2.351562 -17.921875 5 -20.203125 C 7.65625 -22.484375 10.941406 -23.625 14.859375 -23.625 C 18.703125 -23.625 21.941406 -22.472656 24.578125 -20.171875 C 27.222656 -17.878906 28.546875 -14.972656 28.546875 -11.453125 C 28.546875 -7.929688 27.253906 -5.03125 24.671875 -2.75 C 22.085938 -0.46875 18.816406 0.671875 14.859375 0.671875 C 10.734375 0.671875 7.394531 -0.457031 4.84375 -2.71875 Z M 10.984375 -15.34375 C 9.953125 -14.332031 9.4375 -13.035156 9.4375 -11.453125 C 9.4375 -9.867188 9.925781 -8.578125 10.90625 -7.578125 C 11.894531 -6.578125 13.195312 -6.078125 14.8125 -6.078125 C 16.363281 -6.078125 17.632812 -6.582031 18.625 -7.59375 C 19.625 -8.613281 20.125 -9.898438 20.125 -11.453125 C 20.125 -13.035156 19.609375 -14.332031 18.578125 -15.34375 C 17.554688 -16.351562 16.300781 -16.859375 14.8125 -16.859375 C 13.289062 -16.859375 12.015625 -16.351562 10.984375 -15.34375 Z M 10.984375 -15.34375 "/></g></g></g><g fill="#000000" fill-opacity="1"><g transform="translate(181.839924, 55.292532)"><g><path d="M 4.25 -2.84375 C 2.101562 -5.1875 1.03125 -8.054688 1.03125 -11.453125 C 1.03125 -14.847656 2.101562 -17.722656 4.25 -20.078125 C 6.394531 -22.441406 9.125 -23.625 12.4375 -23.625 C 15.476562 -23.625 17.984375 -22.664062 19.953125 -20.75 L 19.953125 -22.953125 L 27.875 -22.953125 L 27.875 0 L 20.046875 0 L 20.046875 -2.59375 L 19.953125 -2.59375 C 17.984375 -0.414062 15.476562 0.671875 12.4375 0.671875 C 9.125 0.671875 6.394531 -0.5 4.25 -2.84375 Z M 10.984375 -15.34375 C 9.953125 -14.332031 9.4375 -13.035156 9.4375 -11.453125 C 9.4375 -9.867188 9.925781 -8.578125 10.90625 -7.578125 C 11.894531 -6.578125 13.195312 -6.078125 14.8125 -6.078125 C 16.363281 -6.078125 17.632812 -6.582031 18.625 -7.59375 C 19.625 -8.613281 20.125 -9.898438 20.125 -11.453125 C 20.125 -13.035156 19.609375 -14.332031 18.578125 -15.34375 C 17.554688 -16.351562 16.300781 -16.859375 14.8125 -16.859375 C 13.289062 -16.859375 12.015625 -16.351562 10.984375 -15.34375 Z M 10.984375 -15.34375 "/></g></g></g><g fill="#000000" fill-opacity="1"><g transform="translate(208.904067, 55.292532)"><g><path d="M 2.6875 0 L 2.6875 -22.953125 L 10.609375 -22.953125 L 10.609375 -19.640625 L 10.6875 -19.640625 C 10.75 -19.753906 10.847656 -19.898438 10.984375 -20.078125 C 11.117188 -20.265625 11.410156 -20.582031 11.859375 -21.03125 C 12.304688 -21.476562 12.78125 -21.878906 13.28125 -22.234375 C 13.789062 -22.585938 14.445312 -22.90625 15.25 -23.1875 C 16.0625 -23.476562 16.882812 -23.625 17.71875 -23.625 C 18.582031 -23.625 19.429688 -23.503906 20.265625 -23.265625 C 21.097656 -23.023438 21.707031 -22.785156 22.09375 -22.546875 L 22.71875 -22.1875 L 19.421875 -15.484375 C 18.429688 -16.316406 17.054688 -16.734375 15.296875 -16.734375 C 14.347656 -16.734375 13.53125 -16.523438 12.84375 -16.109375 C 12.15625 -15.691406 11.664062 -15.179688 11.375 -14.578125 C 11.09375 -13.984375 10.894531 -13.476562 10.78125 -13.0625 C 10.664062 -12.644531 10.609375 -12.316406 10.609375 -12.078125 L 10.609375 0 Z M 2.6875 0 "/></g></g></g><g fill="#000000" fill-opacity="1"><g transform="translate(227.692138, 55.292532)"><g><path d="M 4.25 -2.84375 C 2.101562 -5.1875 1.03125 -8.054688 1.03125 -11.453125 C 1.03125 -14.847656 2.101562 -17.722656 4.25 -20.078125 C 6.394531 -22.441406 9.125 -23.625 12.4375 -23.625 C 15.476562 -23.625 17.984375 -22.664062 19.953125 -20.75 L 19.953125 -38.46875 L 27.875 -38.46875 L 27.875 0 L 20.046875 0 L 20.046875 -2.59375 L 19.953125 -2.59375 C 17.984375 -0.414062 15.476562 0.671875 12.4375 0.671875 C 9.125 0.671875 6.394531 -0.5 4.25 -2.84375 Z M 10.984375 -15.34375 C 9.953125 -14.332031 9.4375 -13.035156 9.4375 -11.453125 C 9.4375 -9.867188 9.925781 -8.578125 10.90625 -7.578125 C 11.894531 -6.578125 13.195312 -6.078125 14.8125 -6.078125 C 16.363281 -6.078125 17.632812 -6.582031 18.625 -7.59375 C 19.625 -8.613281 20.125 -9.898438 20.125 -11.453125 C 20.125 -13.035156 19.609375 -14.332031 18.578125 -15.34375 C 17.554688 -16.351562 16.300781 -16.859375 14.8125 -16.859375 C 13.289062 -16.859375 12.015625 -16.351562 10.984375 -15.34375 Z M 10.984375 -15.34375 "/></g></g></g><g fill="#000000" fill-opacity="1"><g transform="translate(253.468137, 56.784105)"><g><path d="M 7.78125 -9.578125 C 9.21875 -9.578125 10.429688 -9.078125 11.421875 -8.078125 C 12.421875 -7.078125 12.921875 -5.859375 12.921875 -4.421875 C 12.921875 -3.023438 12.421875 -1.828125 11.421875 -0.828125 C 10.429688 0.171875 9.21875 0.671875 7.78125 0.671875 C 6.382812 0.671875 5.1875 0.171875 4.1875 -0.828125 C 3.1875 -1.828125 2.6875 -3.023438 2.6875 -4.421875 C 2.6875 -5.859375 3.1875 -7.078125 4.1875 -8.078125 C 5.1875 -9.078125 6.382812 -9.578125 7.78125 -9.578125 Z M 7.78125 -9.578125 "/></g></g></g></svg>