<svg xmlns="http://www.w3.org/2000/svg" xmlns:xlink="http://www.w3.org/1999/xlink" width="160" zoomAndPan="magnify" viewBox="0 0 120 155.999997" height="208" preserveAspectRatio="xMidYMid meet" version="1.0"><defs><g/><clipPath id="cd0ba01a23"><path d="M 98.304688 0 L 119.421875 0 L 119.421875 21.117188 L 98.304688 21.117188 Z M 98.304688 0 " clip-rule="nonzero"/></clipPath><clipPath id="e2da9f8d27"><path d="M 108.863281 0 C 103.03125 0 98.304688 4.726562 98.304688 10.558594 C 98.304688 16.390625 103.03125 21.117188 108.863281 21.117188 C 114.695312 21.117188 119.421875 16.390625 119.421875 10.558594 C 119.421875 4.726562 114.695312 0 108.863281 0 Z M 108.863281 0 " clip-rule="nonzero"/></clipPath><clipPath id="c79b7f5c7e"><path d="M 32.675781 17.203125 L 108.863281 17.203125 L 108.863281 93.390625 L 32.675781 93.390625 Z M 32.675781 17.203125 " clip-rule="nonzero"/></clipPath><clipPath id="8eee40e7ac"><path d="M 70.769531 17.203125 C 49.730469 17.203125 32.675781 34.257812 32.675781 55.296875 C 32.675781 76.335938 49.730469 93.390625 70.769531 93.390625 C 91.808594 93.390625 108.863281 76.335938 108.863281 55.296875 C 108.863281 34.257812 91.808594 17.203125 70.769531 17.203125 Z M 70.769531 17.203125 " clip-rule="nonzero"/></clipPath><clipPath id="ef5df464e9"><path d="M 47.546875 32.074219 L 93.992188 32.074219 L 93.992188 78.519531 L 47.546875 78.519531 Z M 47.546875 32.074219 " clip-rule="nonzero"/></clipPath><clipPath id="26f9b2a83e"><path d="M 70.769531 32.074219 C 57.945312 32.074219 47.546875 42.472656 47.546875 55.296875 C 47.546875 68.121094 57.945312 78.519531 70.769531 78.519531 C 83.597656 78.519531 93.992188 68.121094 93.992188 55.296875 C 93.992188 42.472656 83.597656 32.074219 70.769531 32.074219 Z M 70.769531 32.074219 " clip-rule="nonzero"/></clipPath><clipPath id="19d9179b9b"><path d="M 45.128906 107.792969 L 117.382812 107.792969 L 117.382812 155.960938 L 45.128906 155.960938 Z M 45.128906 107.792969 " clip-rule="nonzero"/></clipPath><clipPath id="5042589652"><path d="M 32.675781 107.898438 L 61.578125 107.898438 L 61.578125 122.351562 L 32.675781 122.351562 Z M 32.675781 107.898438 " clip-rule="nonzero"/></clipPath></defs><g clip-path="url(#cd0ba01a23)"><g clip-path="url(#e2da9f8d27)"><path fill="#000000" d="M 98.304688 0 L 119.421875 0 L 119.421875 21.117188 L 98.304688 21.117188 Z M 98.304688 0 " fill-opacity="1" fill-rule="nonzero"/></g></g><g clip-path="url(#c79b7f5c7e)"><g clip-path="url(#8eee40e7ac)"><path fill="#000000" d="M 32.675781 17.203125 L 108.863281 17.203125 L 108.863281 93.390625 L 32.675781 93.390625 Z M 32.675781 17.203125 " fill-opacity="1" fill-rule="nonzero"/></g></g><g clip-path="url(#ef5df464e9)"><g clip-path="url(#26f9b2a83e)"><path fill="#edeae9" d="M 47.546875 32.074219 L 93.992188 32.074219 L 93.992188 78.519531 L 47.546875 78.519531 Z M 47.546875 32.074219 " fill-opacity="1" fill-rule="nonzero"/></g></g><g clip-path="url(#19d9179b9b)"><path fill="#000000" d="M 45.152344 109.398438 L 45.152344 120.636719 C 45.152344 121.523438 45.871094 122.242188 46.753906 122.242188 L 94.558594 122.242188 C 99.765625 122.242188 104.308594 126.234375 104.511719 131.441406 C 104.726562 136.960938 100.355469 141.511719 94.894531 141.511719 C 94.007812 141.511719 93.289062 142.230469 93.289062 143.117188 L 93.289062 154.355469 C 93.289062 155.253906 94.027344 155.964844 94.925781 155.960938 C 107.296875 155.945312 117.359375 145.148438 117.359375 131.878906 C 117.359375 118.597656 107.28125 107.792969 94.894531 107.792969 L 46.753906 107.792969 C 45.871094 107.792969 45.152344 108.511719 45.152344 109.398438 Z M 45.152344 109.398438 " fill-opacity="1" fill-rule="nonzero"/></g><g clip-path="url(#5042589652)"><path fill="#000000" d="M 61.609375 107.898438 C 61.609375 115.894531 55.132812 122.371094 47.136719 122.371094 C 39.144531 122.371094 32.6875 115.894531 32.6875 107.898438 Z M 61.609375 107.898438 " fill-opacity="1" fill-rule="nonzero"/></g><g fill="#000000" fill-opacity="1"><g transform="translate(4.777669, 147.999456)"><g><path d="M 9.28125 -8.890625 C 9.28125 -8.316406 9.132812 -7.875 8.84375 -7.5625 C 8.550781 -7.25 8.117188 -7.015625 7.546875 -6.859375 C 7.816406 -6.648438 8.03125 -6.40625 8.1875 -6.125 C 8.34375 -5.851562 8.421875 -5.5625 8.421875 -5.25 C 8.421875 -4.457031 8.117188 -3.859375 7.515625 -3.453125 C 6.921875 -3.046875 6.175781 -2.84375 5.28125 -2.84375 L 4.203125 -2.84375 C 3.609375 -2.84375 3.3125 -2.703125 3.3125 -2.421875 C 3.3125 -2.296875 3.375 -2.191406 3.5 -2.109375 C 3.632812 -2.023438 3.867188 -1.984375 4.203125 -1.984375 L 6.75 -1.984375 C 7.582031 -1.984375 8.210938 -1.765625 8.640625 -1.328125 C 9.066406 -0.898438 9.28125 -0.320312 9.28125 0.40625 C 9.28125 0.945312 9.132812 1.410156 8.84375 1.796875 C 8.5625 2.191406 8.179688 2.488281 7.703125 2.6875 C 7.222656 2.882812 6.695312 2.984375 6.125 2.984375 L 1.953125 2.984375 C 1.617188 2.984375 1.304688 2.898438 1.015625 2.734375 C 0.722656 2.578125 0.492188 2.359375 0.328125 2.078125 C 0.160156 1.796875 0.078125 1.488281 0.078125 1.15625 C 0.078125 0.78125 0.1875 0.441406 0.40625 0.140625 C 0.632812 -0.148438 0.921875 -0.375 1.265625 -0.53125 C 1.035156 -0.6875 0.851562 -0.878906 0.71875 -1.109375 C 0.59375 -1.335938 0.53125 -1.582031 0.53125 -1.84375 C 0.53125 -2.207031 0.664062 -2.539062 0.9375 -2.84375 C 1.207031 -3.144531 1.546875 -3.347656 1.953125 -3.453125 C 1.585938 -3.679688 1.296875 -3.945312 1.078125 -4.25 C 0.859375 -4.5625 0.75 -4.890625 0.75 -5.234375 C 0.75 -6.109375 1.097656 -6.726562 1.796875 -7.09375 C 2.503906 -7.46875 3.441406 -7.65625 4.609375 -7.65625 C 5.117188 -7.65625 5.53125 -7.628906 5.84375 -7.578125 C 6.3125 -7.867188 6.613281 -8.132812 6.75 -8.375 C 6.882812 -8.613281 6.953125 -8.785156 6.953125 -8.890625 Z M 4.578125 -6.1875 C 4.265625 -6.1875 4.007812 -6.101562 3.8125 -5.9375 C 3.613281 -5.78125 3.515625 -5.550781 3.515625 -5.25 C 3.515625 -4.9375 3.609375 -4.703125 3.796875 -4.546875 C 3.984375 -4.390625 4.242188 -4.3125 4.578125 -4.3125 C 4.921875 -4.3125 5.1875 -4.390625 5.375 -4.546875 C 5.570312 -4.703125 5.671875 -4.9375 5.671875 -5.25 C 5.671875 -5.5625 5.570312 -5.796875 5.375 -5.953125 C 5.1875 -6.109375 4.921875 -6.1875 4.578125 -6.1875 Z M 3.484375 0 C 3.265625 0 3.085938 0.0546875 2.953125 0.171875 C 2.816406 0.296875 2.75 0.46875 2.75 0.6875 C 2.75 0.894531 2.816406 1.066406 2.953125 1.203125 C 3.097656 1.335938 3.273438 1.40625 3.484375 1.40625 L 5.703125 1.40625 C 5.910156 1.40625 6.085938 1.335938 6.234375 1.203125 C 6.378906 1.078125 6.453125 0.90625 6.453125 0.6875 C 6.453125 0.476562 6.378906 0.3125 6.234375 0.1875 C 6.097656 0.0625 5.921875 0 5.703125 0 Z M 3.484375 0 "/></g></g></g><g fill="#000000" fill-opacity="1"><g transform="translate(14.235569, 147.999456)"><g><path d="M 4.71875 -7.65625 C 6.039062 -7.65625 7.078125 -7.320312 7.828125 -6.65625 C 8.578125 -5.988281 8.953125 -5.019531 8.953125 -3.75 C 8.953125 -2.46875 8.578125 -1.492188 7.828125 -0.828125 C 7.078125 -0.160156 6.039062 0.171875 4.71875 0.171875 C 3.40625 0.171875 2.375 -0.15625 1.625 -0.8125 C 0.882812 -1.476562 0.515625 -2.457031 0.515625 -3.75 C 0.515625 -5.03125 0.882812 -6 1.625 -6.65625 C 2.375 -7.320312 3.40625 -7.65625 4.71875 -7.65625 Z M 4.71875 -5.75 C 3.789062 -5.75 3.328125 -5.210938 3.328125 -4.140625 L 3.328125 -3.328125 C 3.328125 -2.273438 3.789062 -1.75 4.71875 -1.75 C 5.65625 -1.75 6.125 -2.273438 6.125 -3.328125 L 6.125 -4.140625 C 6.125 -5.210938 5.65625 -5.75 4.71875 -5.75 Z M 4.71875 -5.75 "/></g></g></g><g fill="#000000" fill-opacity="1"><g transform="translate(23.69347, 147.999456)"><g><path d="M 4.71875 -7.65625 C 6.039062 -7.65625 7.078125 -7.320312 7.828125 -6.65625 C 8.578125 -5.988281 8.953125 -5.019531 8.953125 -3.75 C 8.953125 -2.46875 8.578125 -1.492188 7.828125 -0.828125 C 7.078125 -0.160156 6.039062 0.171875 4.71875 0.171875 C 3.40625 0.171875 2.375 -0.15625 1.625 -0.8125 C 0.882812 -1.476562 0.515625 -2.457031 0.515625 -3.75 C 0.515625 -5.03125 0.882812 -6 1.625 -6.65625 C 2.375 -7.320312 3.40625 -7.65625 4.71875 -7.65625 Z M 4.71875 -5.75 C 3.789062 -5.75 3.328125 -5.210938 3.328125 -4.140625 L 3.328125 -3.328125 C 3.328125 -2.273438 3.789062 -1.75 4.71875 -1.75 C 5.65625 -1.75 6.125 -2.273438 6.125 -3.328125 L 6.125 -4.140625 C 6.125 -5.210938 5.65625 -5.75 4.71875 -5.75 Z M 4.71875 -5.75 "/></g></g></g><g fill="#000000" fill-opacity="1"><g transform="translate(33.15137, 147.999456)"><g><path d="M 6.296875 0 L 6.0625 -1.0625 C 5.507812 -0.238281 4.710938 0.171875 3.671875 0.171875 C 2.660156 0.171875 1.878906 -0.15625 1.328125 -0.8125 C 0.785156 -1.476562 0.515625 -2.460938 0.515625 -3.765625 C 0.515625 -5.046875 0.785156 -6.015625 1.328125 -6.671875 C 1.878906 -7.328125 2.660156 -7.65625 3.671875 -7.65625 C 4.535156 -7.65625 5.238281 -7.367188 5.78125 -6.796875 L 5.78125 -10.28125 L 8.59375 -10.28125 L 8.59375 0 Z M 4.546875 -5.578125 C 3.734375 -5.578125 3.328125 -5.085938 3.328125 -4.109375 L 3.328125 -3.359375 C 3.328125 -2.398438 3.734375 -1.921875 4.546875 -1.921875 C 4.960938 -1.921875 5.273438 -2.066406 5.484375 -2.359375 C 5.691406 -2.648438 5.796875 -3.03125 5.796875 -3.5 L 5.796875 -3.96875 C 5.796875 -4.445312 5.691406 -4.832031 5.484375 -5.125 C 5.273438 -5.425781 4.960938 -5.578125 4.546875 -5.578125 Z M 4.546875 -5.578125 "/></g></g></g><g fill="#000000" fill-opacity="1"><g transform="translate(42.609271, 147.999456)"><g><path d="M 3.6875 -6.796875 C 4.226562 -7.367188 4.925781 -7.65625 5.78125 -7.65625 C 6.800781 -7.65625 7.582031 -7.328125 8.125 -6.671875 C 8.675781 -6.015625 8.953125 -5.046875 8.953125 -3.765625 C 8.953125 -2.460938 8.675781 -1.476562 8.125 -0.8125 C 7.582031 -0.15625 6.800781 0.171875 5.78125 0.171875 C 4.75 0.171875 3.957031 -0.238281 3.40625 -1.0625 L 3.15625 0 L 0.859375 0 L 0.859375 -10.28125 L 3.6875 -10.28125 Z M 4.90625 -5.578125 C 4.488281 -5.578125 4.175781 -5.425781 3.96875 -5.125 C 3.757812 -4.832031 3.65625 -4.445312 3.65625 -3.96875 L 3.65625 -3.5 C 3.65625 -3.03125 3.757812 -2.648438 3.96875 -2.359375 C 4.175781 -2.066406 4.488281 -1.921875 4.90625 -1.921875 C 5.71875 -1.921875 6.125 -2.398438 6.125 -3.359375 L 6.125 -4.109375 C 6.125 -5.085938 5.71875 -5.578125 4.90625 -5.578125 Z M 4.90625 -5.578125 "/></g></g></g><g fill="#000000" fill-opacity="1"><g transform="translate(52.067171, 147.999456)"><g><path d="M 4.71875 -7.65625 C 6.039062 -7.65625 7.078125 -7.320312 7.828125 -6.65625 C 8.578125 -5.988281 8.953125 -5.019531 8.953125 -3.75 C 8.953125 -2.46875 8.578125 -1.492188 7.828125 -0.828125 C 7.078125 -0.160156 6.039062 0.171875 4.71875 0.171875 C 3.40625 0.171875 2.375 -0.15625 1.625 -0.8125 C 0.882812 -1.476562 0.515625 -2.457031 0.515625 -3.75 C 0.515625 -5.03125 0.882812 -6 1.625 -6.65625 C 2.375 -7.320312 3.40625 -7.65625 4.71875 -7.65625 Z M 4.71875 -5.75 C 3.789062 -5.75 3.328125 -5.210938 3.328125 -4.140625 L 3.328125 -3.328125 C 3.328125 -2.273438 3.789062 -1.75 4.71875 -1.75 C 5.65625 -1.75 6.125 -2.273438 6.125 -3.328125 L 6.125 -4.140625 C 6.125 -5.210938 5.65625 -5.75 4.71875 -5.75 Z M 4.71875 -5.75 "/></g></g></g><g fill="#000000" fill-opacity="1"><g transform="translate(61.525072, 147.999456)"><g><path d="M 4.546875 -7.65625 C 5.691406 -7.65625 6.625 -7.460938 7.34375 -7.078125 C 8.0625 -6.703125 8.421875 -6.082031 8.421875 -5.21875 L 8.421875 -2.296875 C 8.421875 -2.140625 8.457031 -2.007812 8.53125 -1.90625 C 8.613281 -1.800781 8.726562 -1.75 8.875 -1.75 L 9.390625 -1.75 L 9.390625 -0.109375 C 9.359375 -0.0859375 9.285156 -0.0546875 9.171875 -0.015625 C 9.054688 0.0234375 8.890625 0.0664062 8.671875 0.109375 C 8.453125 0.148438 8.203125 0.171875 7.921875 0.171875 C 7.367188 0.171875 6.914062 0.0859375 6.5625 -0.078125 C 6.207031 -0.242188 5.960938 -0.472656 5.828125 -0.765625 C 5.472656 -0.484375 5.070312 -0.253906 4.625 -0.078125 C 4.175781 0.0859375 3.65625 0.171875 3.0625 0.171875 C 1.300781 0.171875 0.421875 -0.523438 0.421875 -1.921875 C 0.421875 -2.648438 0.617188 -3.207031 1.015625 -3.59375 C 1.410156 -3.976562 1.972656 -4.238281 2.703125 -4.375 C 3.441406 -4.519531 4.410156 -4.59375 5.609375 -4.59375 L 5.609375 -4.96875 C 5.609375 -5.257812 5.503906 -5.476562 5.296875 -5.625 C 5.097656 -5.78125 4.835938 -5.859375 4.515625 -5.859375 C 4.222656 -5.859375 3.96875 -5.804688 3.75 -5.703125 C 3.539062 -5.597656 3.4375 -5.429688 3.4375 -5.203125 L 3.4375 -5.15625 L 0.65625 -5.15625 C 0.644531 -5.195312 0.640625 -5.257812 0.640625 -5.34375 C 0.640625 -6.050781 0.976562 -6.613281 1.65625 -7.03125 C 2.332031 -7.445312 3.296875 -7.65625 4.546875 -7.65625 Z M 5.609375 -3.265625 C 4.796875 -3.265625 4.195312 -3.175781 3.8125 -3 C 3.4375 -2.820312 3.25 -2.585938 3.25 -2.296875 C 3.25 -1.828125 3.570312 -1.59375 4.21875 -1.59375 C 4.582031 -1.59375 4.90625 -1.691406 5.1875 -1.890625 C 5.46875 -2.085938 5.609375 -2.332031 5.609375 -2.625 Z M 5.609375 -3.265625 "/></g></g></g><g fill="#000000" fill-opacity="1"><g transform="translate(70.982972, 147.999456)"><g><path d="M 5.40625 -7.671875 C 5.625 -7.671875 5.816406 -7.644531 5.984375 -7.59375 C 6.160156 -7.539062 6.25 -7.507812 6.25 -7.5 L 6.25 -5.140625 L 5.328125 -5.140625 C 4.742188 -5.140625 4.320312 -4.988281 4.0625 -4.6875 C 3.800781 -4.382812 3.671875 -3.929688 3.671875 -3.328125 L 3.671875 0 L 0.84375 0 L 0.84375 -7.484375 L 3.15625 -7.484375 L 3.34375 -6.359375 C 3.519531 -6.796875 3.789062 -7.125 4.15625 -7.34375 C 4.519531 -7.5625 4.9375 -7.671875 5.40625 -7.671875 Z M 5.40625 -7.671875 "/></g></g></g><g fill="#000000" fill-opacity="1"><g transform="translate(77.27879, 147.999456)"><g><path d="M 6.296875 0 L 6.0625 -1.0625 C 5.507812 -0.238281 4.710938 0.171875 3.671875 0.171875 C 2.660156 0.171875 1.878906 -0.15625 1.328125 -0.8125 C 0.785156 -1.476562 0.515625 -2.460938 0.515625 -3.765625 C 0.515625 -5.046875 0.785156 -6.015625 1.328125 -6.671875 C 1.878906 -7.328125 2.660156 -7.65625 3.671875 -7.65625 C 4.535156 -7.65625 5.238281 -7.367188 5.78125 -6.796875 L 5.78125 -10.28125 L 8.59375 -10.28125 L 8.59375 0 Z M 4.546875 -5.578125 C 3.734375 -5.578125 3.328125 -5.085938 3.328125 -4.109375 L 3.328125 -3.359375 C 3.328125 -2.398438 3.734375 -1.921875 4.546875 -1.921875 C 4.960938 -1.921875 5.273438 -2.066406 5.484375 -2.359375 C 5.691406 -2.648438 5.796875 -3.03125 5.796875 -3.5 L 5.796875 -3.96875 C 5.796875 -4.445312 5.691406 -4.832031 5.484375 -5.125 C 5.273438 -5.425781 4.960938 -5.578125 4.546875 -5.578125 Z M 4.546875 -5.578125 "/></g></g></g></svg>