<svg xmlns="http://www.w3.org/2000/svg" xmlns:xlink="http://www.w3.org/1999/xlink" width="314" zoomAndPan="magnify" viewBox="0 0 235.5 52.499999" height="70" preserveAspectRatio="xMidYMid meet" version="1.0"><defs><g/><clipPath id="ee9de37200"><path d="M 0.863281 0 L 52.867188 0 L 52.867188 52 L 0.863281 52 Z M 0.863281 0 " clip-rule="nonzero"/></clipPath></defs><g clip-path="url(#ee9de37200)"><path fill="#ffffff" d="M 33.695312 0 L 19.910156 0 C 19.285156 0 18.664062 0.03125 18.042969 0.0898438 C 17.421875 0.152344 16.804688 0.246094 16.195312 0.367188 C 15.582031 0.488281 14.976562 0.640625 14.378906 0.820312 C 13.785156 1 13.195312 1.210938 12.621094 1.449219 C 12.042969 1.6875 11.480469 1.953125 10.929688 2.25 C 10.382812 2.542969 9.847656 2.863281 9.328125 3.210938 C 8.808594 3.554688 8.308594 3.925781 7.828125 4.324219 C 7.34375 4.71875 6.882812 5.136719 6.441406 5.578125 C 6 6.019531 5.582031 6.480469 5.1875 6.964844 C 4.789062 7.445312 4.417969 7.945312 4.074219 8.464844 C 3.726562 8.984375 3.40625 9.519531 3.113281 10.066406 C 2.816406 10.617188 2.550781 11.179688 2.3125 11.757812 C 2.074219 12.332031 1.863281 12.921875 1.683594 13.515625 C 1.503906 14.113281 1.351562 14.71875 1.230469 15.332031 C 1.109375 15.941406 1.015625 16.558594 0.953125 17.179688 C 0.894531 17.800781 0.863281 18.421875 0.863281 19.046875 L 0.863281 32.832031 C 0.863281 33.453125 0.894531 34.078125 0.953125 34.699219 C 1.015625 35.320312 1.109375 35.933594 1.230469 36.546875 C 1.351562 37.160156 1.503906 37.761719 1.683594 38.359375 C 1.863281 38.957031 2.074219 39.542969 2.3125 40.121094 C 2.550781 40.695312 2.816406 41.257812 3.113281 41.808594 C 3.40625 42.359375 3.726562 42.894531 4.074219 43.414062 C 4.417969 43.929688 4.789062 44.429688 5.1875 44.914062 C 5.582031 45.394531 6 45.855469 6.441406 46.296875 C 6.882812 46.738281 7.34375 47.15625 7.828125 47.554688 C 8.308594 47.949219 8.808594 48.320312 9.328125 48.667969 C 9.847656 49.015625 10.382812 49.335938 10.929688 49.628906 C 11.480469 49.921875 12.042969 50.1875 12.621094 50.425781 C 13.195312 50.664062 13.785156 50.875 14.378906 51.058594 C 14.976562 51.238281 15.582031 51.390625 16.195312 51.511719 C 16.804688 51.632812 17.421875 51.722656 18.042969 51.785156 C 18.664062 51.847656 19.285156 51.878906 19.910156 51.878906 L 33.695312 51.878906 C 34.316406 51.878906 34.941406 51.847656 35.5625 51.785156 C 36.179688 51.722656 36.796875 51.632812 37.410156 51.511719 C 38.023438 51.390625 38.625 51.238281 39.222656 51.058594 C 39.820312 50.875 40.40625 50.664062 40.984375 50.425781 C 41.558594 50.1875 42.121094 49.921875 42.671875 49.628906 C 43.222656 49.335938 43.757812 49.015625 44.277344 48.667969 C 44.792969 48.320312 45.292969 47.949219 45.777344 47.554688 C 46.257812 47.15625 46.71875 46.738281 47.160156 46.296875 C 47.601562 45.859375 48.019531 45.394531 48.417969 44.914062 C 48.8125 44.429688 49.183594 43.929688 49.53125 43.414062 C 49.875 42.894531 50.195312 42.359375 50.492188 41.808594 C 50.785156 41.257812 51.050781 40.695312 51.289062 40.121094 C 51.527344 39.542969 51.738281 38.957031 51.921875 38.359375 C 52.101562 37.761719 52.253906 37.160156 52.375 36.546875 C 52.496094 35.933594 52.585938 35.320312 52.648438 34.699219 C 52.710938 34.078125 52.742188 33.453125 52.742188 32.832031 L 52.742188 19.046875 C 52.742188 18.421875 52.710938 17.800781 52.648438 17.179688 C 52.585938 16.558594 52.496094 15.941406 52.375 15.332031 C 52.253906 14.71875 52.101562 14.113281 51.921875 13.515625 C 51.738281 12.921875 51.527344 12.332031 51.289062 11.757812 C 51.050781 11.179688 50.785156 10.617188 50.492188 10.066406 C 50.195312 9.519531 49.875 8.984375 49.53125 8.464844 C 49.183594 7.945312 48.8125 7.445312 48.417969 6.964844 C 48.019531 6.480469 47.601562 6.019531 47.160156 5.578125 C 46.71875 5.136719 46.257812 4.71875 45.777344 4.324219 C 45.292969 3.925781 44.792969 3.554688 44.277344 3.210938 C 43.757812 2.863281 43.222656 2.542969 42.671875 2.25 C 42.121094 1.953125 41.558594 1.6875 40.984375 1.449219 C 40.40625 1.210938 39.820312 1 39.222656 0.820312 C 38.625 0.640625 38.023438 0.488281 37.410156 0.367188 C 36.796875 0.246094 36.179688 0.152344 35.5625 0.0898438 C 34.941406 0.03125 34.316406 0 33.695312 0 Z M 26.144531 40.761719 C 21.652344 40.519531 13.832031 36.738281 13.832031 27.410156 L 13.832031 13.894531 C 13.832031 13.527344 13.902344 13.171875 14.042969 12.832031 C 14.183594 12.492188 14.386719 12.191406 14.644531 11.929688 C 14.90625 11.667969 15.207031 11.46875 15.546875 11.328125 C 15.886719 11.1875 16.242188 11.117188 16.613281 11.117188 L 18.464844 11.117188 C 18.832031 11.117188 19.1875 11.1875 19.527344 11.328125 C 19.867188 11.46875 20.167969 11.667969 20.429688 11.929688 C 20.691406 12.191406 20.890625 12.492188 21.03125 12.832031 C 21.171875 13.171875 21.242188 13.527344 21.242188 13.894531 L 21.242188 27.597656 C 21.234375 28.285156 21.34375 28.949219 21.574219 29.597656 C 21.808594 30.242188 22.144531 30.828125 22.589844 31.355469 C 23.03125 31.878906 23.554688 32.308594 24.152344 32.644531 C 24.75 32.980469 25.390625 33.199219 26.070312 33.304688 C 26.414062 33.351562 26.761719 33.363281 27.109375 33.34375 C 27.457031 33.328125 27.796875 33.277344 28.136719 33.195312 C 28.472656 33.113281 28.800781 33 29.117188 32.855469 C 29.433594 32.710938 29.734375 32.539062 30.019531 32.335938 C 30.300781 32.136719 30.566406 31.910156 30.808594 31.660156 C 31.050781 31.414062 31.265625 31.140625 31.457031 30.851562 C 31.648438 30.5625 31.8125 30.253906 31.945312 29.933594 C 32.078125 29.613281 32.183594 29.28125 32.253906 28.941406 C 32.324219 28.601562 32.363281 28.257812 32.371094 27.910156 C 32.378906 27.5625 32.355469 27.21875 32.296875 26.875 C 32.238281 26.53125 32.148438 26.195312 32.03125 25.871094 C 31.910156 25.542969 31.757812 25.230469 31.578125 24.933594 C 31.402344 24.636719 31.195312 24.355469 30.964844 24.097656 C 30.734375 23.835938 30.480469 23.601562 30.203125 23.390625 C 29.929688 23.175781 29.636719 22.992188 29.324219 22.835938 C 29.015625 22.679688 28.691406 22.550781 28.359375 22.457031 C 27.902344 22.332031 27.53125 22.085938 27.246094 21.714844 C 26.957031 21.34375 26.808594 20.925781 26.800781 20.453125 L 26.800781 17.101562 C 26.800781 16.796875 26.863281 16.503906 26.992188 16.226562 C 27.117188 15.949219 27.300781 15.710938 27.53125 15.511719 C 27.765625 15.316406 28.03125 15.175781 28.324219 15.097656 C 28.621094 15.015625 28.917969 15 29.21875 15.054688 C 30.023438 15.199219 30.808594 15.421875 31.570312 15.714844 C 32.335938 16.011719 33.0625 16.375 33.757812 16.808594 C 34.453125 17.242188 35.101562 17.734375 35.703125 18.289062 C 36.300781 18.847656 36.84375 19.453125 37.332031 20.113281 C 37.816406 20.769531 38.238281 21.46875 38.589844 22.207031 C 38.945312 22.945312 39.226562 23.707031 39.433594 24.5 C 39.644531 25.289062 39.777344 26.09375 39.835938 26.910156 C 39.890625 27.726562 39.871094 28.542969 39.773438 29.355469 C 39.675781 30.167969 39.503906 30.960938 39.257812 31.742188 C 39.007812 32.523438 38.691406 33.273438 38.300781 33.992188 C 37.910156 34.710938 37.457031 35.386719 36.9375 36.019531 C 36.421875 36.65625 35.847656 37.234375 35.21875 37.757812 C 34.59375 38.285156 33.921875 38.746094 33.207031 39.144531 C 32.492188 39.542969 31.746094 39.871094 30.96875 40.125 C 30.191406 40.382812 29.398438 40.566406 28.585938 40.671875 C 27.773438 40.777344 26.960938 40.808594 26.144531 40.761719 Z M 26.144531 40.761719 " fill-opacity="1" fill-rule="nonzero"/></g><g fill="#ffffff" fill-opacity="1"><g transform="translate(62.801926, 36.646938)"><g><path d="M 12.171875 -16.6875 C 10.054688 -16.6875 8.523438 -16.097656 7.578125 -14.921875 C 6.640625 -13.753906 6.171875 -12.148438 6.171875 -10.109375 C 6.171875 -9.117188 6.285156 -8.21875 6.515625 -7.40625 C 6.753906 -6.601562 7.101562 -5.910156 7.5625 -5.328125 C 8.03125 -4.742188 8.613281 -4.289062 9.3125 -3.96875 C 10.019531 -3.65625 10.835938 -3.5 11.765625 -3.5 C 12.273438 -3.5 12.707031 -3.503906 13.0625 -3.515625 C 13.414062 -3.535156 13.734375 -3.578125 14.015625 -3.640625 L 14.015625 -10.65625 L 18.546875 -10.65625 L 18.546875 -0.671875 C 18.003906 -0.453125 17.128906 -0.222656 15.921875 0.015625 C 14.722656 0.253906 13.238281 0.375 11.46875 0.375 C 9.957031 0.375 8.582031 0.144531 7.34375 -0.3125 C 6.113281 -0.78125 5.0625 -1.460938 4.1875 -2.359375 C 3.320312 -3.253906 2.648438 -4.351562 2.171875 -5.65625 C 1.691406 -6.957031 1.453125 -8.441406 1.453125 -10.109375 C 1.453125 -11.796875 1.710938 -13.289062 2.234375 -14.59375 C 2.765625 -15.894531 3.484375 -16.992188 4.390625 -17.890625 C 5.304688 -18.796875 6.378906 -19.484375 7.609375 -19.953125 C 8.847656 -20.421875 10.164062 -20.65625 11.5625 -20.65625 C 12.507812 -20.65625 13.367188 -20.585938 14.140625 -20.453125 C 14.910156 -20.328125 15.570312 -20.179688 16.125 -20.015625 C 16.675781 -19.859375 17.128906 -19.691406 17.484375 -19.515625 C 17.847656 -19.335938 18.109375 -19.203125 18.265625 -19.109375 L 16.953125 -15.46875 C 16.328125 -15.789062 15.609375 -16.070312 14.796875 -16.3125 C 13.992188 -16.5625 13.117188 -16.6875 12.171875 -16.6875 Z M 12.171875 -16.6875 "/></g></g></g><g fill="#ffffff" fill-opacity="1"><g transform="translate(83.250346, 36.646938)"><g><path d="M 16.375 -7.6875 C 16.375 -6.488281 16.195312 -5.390625 15.84375 -4.390625 C 15.488281 -3.390625 14.984375 -2.53125 14.328125 -1.8125 C 13.671875 -1.101562 12.878906 -0.554688 11.953125 -0.171875 C 11.035156 0.210938 10.003906 0.40625 8.859375 0.40625 C 7.734375 0.40625 6.707031 0.210938 5.78125 -0.171875 C 4.851562 -0.554688 4.0625 -1.101562 3.40625 -1.8125 C 2.75 -2.53125 2.234375 -3.390625 1.859375 -4.390625 C 1.492188 -5.390625 1.3125 -6.488281 1.3125 -7.6875 C 1.3125 -8.894531 1.5 -9.992188 1.875 -10.984375 C 2.257812 -11.972656 2.785156 -12.816406 3.453125 -13.515625 C 4.117188 -14.210938 4.910156 -14.753906 5.828125 -15.140625 C 6.753906 -15.535156 7.765625 -15.734375 8.859375 -15.734375 C 9.960938 -15.734375 10.972656 -15.535156 11.890625 -15.140625 C 12.816406 -14.753906 13.609375 -14.210938 14.265625 -13.515625 C 14.929688 -12.816406 15.445312 -11.972656 15.8125 -10.984375 C 16.1875 -9.992188 16.375 -8.894531 16.375 -7.6875 Z M 11.9375 -7.6875 C 11.9375 -9.03125 11.671875 -10.082031 11.140625 -10.84375 C 10.609375 -11.613281 9.847656 -12 8.859375 -12 C 7.867188 -12 7.097656 -11.613281 6.546875 -10.84375 C 6.003906 -10.082031 5.734375 -9.03125 5.734375 -7.6875 C 5.734375 -6.34375 6.003906 -5.273438 6.546875 -4.484375 C 7.097656 -3.703125 7.867188 -3.3125 8.859375 -3.3125 C 9.847656 -3.3125 10.609375 -3.703125 11.140625 -4.484375 C 11.671875 -5.273438 11.9375 -6.34375 11.9375 -7.6875 Z M 11.9375 -7.6875 "/></g></g></g><g fill="#ffffff" fill-opacity="1"><g transform="translate(100.93153, 36.646938)"><g><path d="M 16.375 -7.6875 C 16.375 -6.488281 16.195312 -5.390625 15.84375 -4.390625 C 15.488281 -3.390625 14.984375 -2.53125 14.328125 -1.8125 C 13.671875 -1.101562 12.878906 -0.554688 11.953125 -0.171875 C 11.035156 0.210938 10.003906 0.40625 8.859375 0.40625 C 7.734375 0.40625 6.707031 0.210938 5.78125 -0.171875 C 4.851562 -0.554688 4.0625 -1.101562 3.40625 -1.8125 C 2.75 -2.53125 2.234375 -3.390625 1.859375 -4.390625 C 1.492188 -5.390625 1.3125 -6.488281 1.3125 -7.6875 C 1.3125 -8.894531 1.5 -9.992188 1.875 -10.984375 C 2.257812 -11.972656 2.785156 -12.816406 3.453125 -13.515625 C 4.117188 -14.210938 4.910156 -14.753906 5.828125 -15.140625 C 6.753906 -15.535156 7.765625 -15.734375 8.859375 -15.734375 C 9.960938 -15.734375 10.972656 -15.535156 11.890625 -15.140625 C 12.816406 -14.753906 13.609375 -14.210938 14.265625 -13.515625 C 14.929688 -12.816406 15.445312 -11.972656 15.8125 -10.984375 C 16.1875 -9.992188 16.375 -8.894531 16.375 -7.6875 Z M 11.9375 -7.6875 C 11.9375 -9.03125 11.671875 -10.082031 11.140625 -10.84375 C 10.609375 -11.613281 9.847656 -12 8.859375 -12 C 7.867188 -12 7.097656 -11.613281 6.546875 -10.84375 C 6.003906 -10.082031 5.734375 -9.03125 5.734375 -7.6875 C 5.734375 -6.34375 6.003906 -5.273438 6.546875 -4.484375 C 7.097656 -3.703125 7.867188 -3.3125 8.859375 -3.3125 C 9.847656 -3.3125 10.609375 -3.703125 11.140625 -4.484375 C 11.671875 -5.273438 11.9375 -6.34375 11.9375 -7.6875 Z M 11.9375 -7.6875 "/></g></g></g><g fill="#ffffff" fill-opacity="1"><g transform="translate(118.612714, 36.646938)"><g><path d="M 5.734375 -7.78125 C 5.734375 -6.4375 6.035156 -5.351562 6.640625 -4.53125 C 7.242188 -3.71875 8.132812 -3.3125 9.3125 -3.3125 C 9.707031 -3.3125 10.066406 -3.328125 10.390625 -3.359375 C 10.722656 -3.390625 11 -3.425781 11.21875 -3.46875 L 11.21875 -11.359375 C 10.945312 -11.535156 10.59375 -11.679688 10.15625 -11.796875 C 9.71875 -11.910156 9.273438 -11.96875 8.828125 -11.96875 C 6.765625 -11.96875 5.734375 -10.570312 5.734375 -7.78125 Z M 15.546875 -0.5 C 15.160156 -0.382812 14.710938 -0.269531 14.203125 -0.15625 C 13.703125 -0.0507812 13.175781 0.0351562 12.625 0.109375 C 12.070312 0.191406 11.507812 0.253906 10.9375 0.296875 C 10.363281 0.347656 9.816406 0.375 9.296875 0.375 C 8.023438 0.375 6.894531 0.191406 5.90625 -0.171875 C 4.914062 -0.546875 4.082031 -1.078125 3.40625 -1.765625 C 2.726562 -2.453125 2.207031 -3.285156 1.84375 -4.265625 C 1.488281 -5.242188 1.3125 -6.347656 1.3125 -7.578125 C 1.3125 -8.816406 1.46875 -9.9375 1.78125 -10.9375 C 2.09375 -11.9375 2.535156 -12.785156 3.109375 -13.484375 C 3.691406 -14.179688 4.40625 -14.710938 5.25 -15.078125 C 6.101562 -15.453125 7.070312 -15.640625 8.15625 -15.640625 C 8.757812 -15.640625 9.296875 -15.582031 9.765625 -15.46875 C 10.242188 -15.351562 10.726562 -15.1875 11.21875 -14.96875 L 11.21875 -21.90625 L 15.546875 -22.59375 Z M 15.546875 -0.5 "/></g></g></g><g fill="#ffffff" fill-opacity="1"><g transform="translate(136.206514, 36.646938)"><g><path d="M 11.859375 -7.78125 C 11.859375 -10.570312 10.828125 -11.96875 8.765625 -11.96875 C 8.316406 -11.96875 7.875 -11.910156 7.4375 -11.796875 C 7 -11.679688 6.644531 -11.535156 6.375 -11.359375 L 6.375 -3.46875 C 6.59375 -3.425781 6.863281 -3.390625 7.1875 -3.359375 C 7.519531 -3.328125 7.878906 -3.3125 8.265625 -3.3125 C 9.453125 -3.3125 10.347656 -3.71875 10.953125 -4.53125 C 11.554688 -5.351562 11.859375 -6.4375 11.859375 -7.78125 Z M 16.28125 -7.65625 C 16.28125 -6.4375 16.097656 -5.332031 15.734375 -4.34375 C 15.378906 -3.351562 14.863281 -2.503906 14.1875 -1.796875 C 13.507812 -1.097656 12.671875 -0.5625 11.671875 -0.1875 C 10.679688 0.1875 9.554688 0.375 8.296875 0.375 C 7.773438 0.375 7.226562 0.347656 6.65625 0.296875 C 6.082031 0.253906 5.519531 0.191406 4.96875 0.109375 C 4.414062 0.0351562 3.882812 -0.0507812 3.375 -0.15625 C 2.875 -0.269531 2.425781 -0.382812 2.03125 -0.5 L 2.03125 -21.90625 L 6.375 -22.59375 L 6.375 -14.96875 C 6.863281 -15.1875 7.367188 -15.351562 7.890625 -15.46875 C 8.410156 -15.582031 8.972656 -15.640625 9.578125 -15.640625 C 10.671875 -15.640625 11.632812 -15.445312 12.46875 -15.0625 C 13.300781 -14.6875 14 -14.148438 14.5625 -13.453125 C 15.125 -12.753906 15.550781 -11.914062 15.84375 -10.9375 C 16.132812 -9.957031 16.28125 -8.863281 16.28125 -7.65625 Z M 16.28125 -7.65625 "/></g></g></g><g fill="#ffffff" fill-opacity="1"><g transform="translate(153.800313, 36.646938)"><g><path d="M 16.375 -7.6875 C 16.375 -6.488281 16.195312 -5.390625 15.84375 -4.390625 C 15.488281 -3.390625 14.984375 -2.53125 14.328125 -1.8125 C 13.671875 -1.101562 12.878906 -0.554688 11.953125 -0.171875 C 11.035156 0.210938 10.003906 0.40625 8.859375 0.40625 C 7.734375 0.40625 6.707031 0.210938 5.78125 -0.171875 C 4.851562 -0.554688 4.0625 -1.101562 3.40625 -1.8125 C 2.75 -2.53125 2.234375 -3.390625 1.859375 -4.390625 C 1.492188 -5.390625 1.3125 -6.488281 1.3125 -7.6875 C 1.3125 -8.894531 1.5 -9.992188 1.875 -10.984375 C 2.257812 -11.972656 2.785156 -12.816406 3.453125 -13.515625 C 4.117188 -14.210938 4.910156 -14.753906 5.828125 -15.140625 C 6.753906 -15.535156 7.765625 -15.734375 8.859375 -15.734375 C 9.960938 -15.734375 10.972656 -15.535156 11.890625 -15.140625 C 12.816406 -14.753906 13.609375 -14.210938 14.265625 -13.515625 C 14.929688 -12.816406 15.445312 -11.972656 15.8125 -10.984375 C 16.1875 -9.992188 16.375 -8.894531 16.375 -7.6875 Z M 11.9375 -7.6875 C 11.9375 -9.03125 11.671875 -10.082031 11.140625 -10.84375 C 10.609375 -11.613281 9.847656 -12 8.859375 -12 C 7.867188 -12 7.097656 -11.613281 6.546875 -10.84375 C 6.003906 -10.082031 5.734375 -9.03125 5.734375 -7.6875 C 5.734375 -6.34375 6.003906 -5.273438 6.546875 -4.484375 C 7.097656 -3.703125 7.867188 -3.3125 8.859375 -3.3125 C 9.847656 -3.3125 10.609375 -3.703125 11.140625 -4.484375 C 11.671875 -5.273438 11.9375 -6.34375 11.9375 -7.6875 Z M 11.9375 -7.6875 "/></g></g></g><g fill="#ffffff" fill-opacity="1"><g transform="translate(171.481497, 36.646938)"><g><path d="M 7.890625 -3.03125 C 8.316406 -3.03125 8.722656 -3.039062 9.109375 -3.0625 C 9.503906 -3.082031 9.816406 -3.109375 10.046875 -3.140625 L 10.046875 -6.4375 C 9.867188 -6.476562 9.601562 -6.515625 9.25 -6.546875 C 8.90625 -6.585938 8.585938 -6.609375 8.296875 -6.609375 C 7.890625 -6.609375 7.503906 -6.582031 7.140625 -6.53125 C 6.785156 -6.488281 6.472656 -6.398438 6.203125 -6.265625 C 5.929688 -6.128906 5.71875 -5.941406 5.5625 -5.703125 C 5.40625 -5.472656 5.328125 -5.179688 5.328125 -4.828125 C 5.328125 -4.148438 5.554688 -3.679688 6.015625 -3.421875 C 6.472656 -3.160156 7.097656 -3.03125 7.890625 -3.03125 Z M 7.546875 -15.734375 C 8.828125 -15.734375 9.894531 -15.585938 10.75 -15.296875 C 11.601562 -15.003906 12.285156 -14.582031 12.796875 -14.03125 C 13.316406 -13.488281 13.679688 -12.828125 13.890625 -12.046875 C 14.109375 -11.273438 14.21875 -10.414062 14.21875 -9.46875 L 14.21875 -0.4375 C 13.59375 -0.300781 12.722656 -0.140625 11.609375 0.046875 C 10.503906 0.234375 9.171875 0.328125 7.609375 0.328125 C 6.609375 0.328125 5.707031 0.238281 4.90625 0.0625 C 4.101562 -0.113281 3.410156 -0.398438 2.828125 -0.796875 C 2.242188 -1.191406 1.796875 -1.707031 1.484375 -2.34375 C 1.171875 -2.988281 1.015625 -3.78125 1.015625 -4.71875 C 1.015625 -5.613281 1.191406 -6.367188 1.546875 -6.984375 C 1.910156 -7.609375 2.394531 -8.101562 3 -8.46875 C 3.601562 -8.84375 4.289062 -9.113281 5.0625 -9.28125 C 5.84375 -9.445312 6.648438 -9.53125 7.484375 -9.53125 C 8.046875 -9.53125 8.546875 -9.503906 8.984375 -9.453125 C 9.421875 -9.398438 9.773438 -9.335938 10.046875 -9.265625 L 10.046875 -9.671875 C 10.046875 -10.410156 9.820312 -11 9.375 -11.4375 C 8.925781 -11.882812 8.148438 -12.109375 7.046875 -12.109375 C 6.304688 -12.109375 5.578125 -12.054688 4.859375 -11.953125 C 4.140625 -11.847656 3.519531 -11.695312 3 -11.5 L 2.453125 -15 C 2.703125 -15.070312 3.015625 -15.148438 3.390625 -15.234375 C 3.773438 -15.328125 4.1875 -15.40625 4.625 -15.46875 C 5.070312 -15.539062 5.539062 -15.601562 6.03125 -15.65625 C 6.53125 -15.707031 7.035156 -15.734375 7.546875 -15.734375 Z M 7.546875 -15.734375 "/></g></g></g><g fill="#ffffff" fill-opacity="1"><g transform="translate(187.58972, 36.646938)"><g><path d="M 11.265625 -11.46875 C 10.878906 -11.570312 10.421875 -11.675781 9.890625 -11.78125 C 9.367188 -11.882812 8.8125 -11.9375 8.21875 -11.9375 C 7.945312 -11.9375 7.617188 -11.910156 7.234375 -11.859375 C 6.859375 -11.816406 6.570312 -11.765625 6.375 -11.703125 L 6.375 0 L 2.03125 0 L 2.03125 -14.5 C 2.8125 -14.769531 3.726562 -15.023438 4.78125 -15.265625 C 5.84375 -15.515625 7.023438 -15.640625 8.328125 -15.640625 C 8.554688 -15.640625 8.835938 -15.625 9.171875 -15.59375 C 9.503906 -15.5625 9.832031 -15.519531 10.15625 -15.46875 C 10.488281 -15.425781 10.820312 -15.367188 11.15625 -15.296875 C 11.488281 -15.234375 11.769531 -15.15625 12 -15.0625 Z M 11.265625 -11.46875 "/></g></g></g><g fill="#ffffff" fill-opacity="1"><g transform="translate(199.882071, 36.646938)"><g><path d="M 5.734375 -7.78125 C 5.734375 -6.4375 6.035156 -5.351562 6.640625 -4.53125 C 7.242188 -3.71875 8.132812 -3.3125 9.3125 -3.3125 C 9.707031 -3.3125 10.066406 -3.328125 10.390625 -3.359375 C 10.722656 -3.390625 11 -3.425781 11.21875 -3.46875 L 11.21875 -11.359375 C 10.945312 -11.535156 10.59375 -11.679688 10.15625 -11.796875 C 9.71875 -11.910156 9.273438 -11.96875 8.828125 -11.96875 C 6.765625 -11.96875 5.734375 -10.570312 5.734375 -7.78125 Z M 15.546875 -0.5 C 15.160156 -0.382812 14.710938 -0.269531 14.203125 -0.15625 C 13.703125 -0.0507812 13.175781 0.0351562 12.625 0.109375 C 12.070312 0.191406 11.507812 0.253906 10.9375 0.296875 C 10.363281 0.347656 9.816406 0.375 9.296875 0.375 C 8.023438 0.375 6.894531 0.191406 5.90625 -0.171875 C 4.914062 -0.546875 4.082031 -1.078125 3.40625 -1.765625 C 2.726562 -2.453125 2.207031 -3.285156 1.84375 -4.265625 C 1.488281 -5.242188 1.3125 -6.347656 1.3125 -7.578125 C 1.3125 -8.816406 1.46875 -9.9375 1.78125 -10.9375 C 2.09375 -11.9375 2.535156 -12.785156 3.109375 -13.484375 C 3.691406 -14.179688 4.40625 -14.710938 5.25 -15.078125 C 6.101562 -15.453125 7.070312 -15.640625 8.15625 -15.640625 C 8.757812 -15.640625 9.296875 -15.582031 9.765625 -15.46875 C 10.242188 -15.351562 10.726562 -15.1875 11.21875 -14.96875 L 11.21875 -21.90625 L 15.546875 -22.59375 Z M 15.546875 -0.5 "/></g></g></g></svg>