<?xml version="1.0" encoding="UTF-8"?> <svg xmlns="http://www.w3.org/2000/svg" width="342" height="124" fill="none"><path fill-rule="evenodd" clip-rule="evenodd" d="M82.859 35.571c-7.19.98-12.598 7.053-12.75 14.313-7.863 0-14.239 6.707-14.239 14.98-.144 7.36 5.162 13.698 12.43 14.845l44.316-26.579a12.52 12.52 0 0 0-13.656-7.174C96.882 39 90.05 34.592 82.86 35.571Zm105.915 16.682a22.56 22.56 0 0 1-8.897 11.71c.578.977 1.1 1.986 1.563 3.023l5.178 11.548h-4.908l-5.339-12.412a68.056 68.056 0 0 1-6.525 3.022l-1.403 9.39h-4.529l5.285-37.775h4.584L171.356 59a32.053 32.053 0 0 1-1.618 6.26 37.088 37.088 0 0 0 9.222-5.72 16.116 16.116 0 0 0 5.124-7.286h4.69ZM151.92 68.549l-7.334-3.237a10.354 10.354 0 0 1-4.126-3.022 6.204 6.204 0 0 1-.89-4.48c.324-2.446 1.349-4.11 3.074-4.991 1.726-.882 4.369-1.286 7.928-1.214 3.698.05 7.39.32 11.056.81l-.594 3.291a632.814 632.814 0 0 0-10.354-.27 19.441 19.441 0 0 0-5.097.433 2.397 2.397 0 0 0-1.536 2.266 2.495 2.495 0 0 0 .485 2.212 9.923 9.923 0 0 0 2.697 1.619l7.334 3.238a11.023 11.023 0 0 1 4.422 2.968 5.972 5.972 0 0 1 .809 4.479 7.518 7.518 0 0 1-.917 2.914 6.289 6.289 0 0 1-1.644 1.888 6.894 6.894 0 0 1-2.535 1.08c-1.046.248-2.11.41-3.182.485-1.061.072-2.4.108-4.017.109-1.223 0-2.311-.027-3.263-.082-.953-.054-1.663-.099-2.131-.134a58.158 58.158 0 0 1-2.238-.244 854.524 854.524 0 0 1-2.4-.296l.539-3.346c2.158.181 4.962.271 8.414.27a26.133 26.133 0 0 0 6.795-.648 2.938 2.938 0 0 0 2.103-2.427 2.368 2.368 0 0 0-.216-1.62 2.611 2.611 0 0 0-.863-.944 16.105 16.105 0 0 0-1.726-.836 11.366 11.366 0 0 1-.593-.27Zm66.005-16.296h-4.746a80.067 80.067 0 0 1-7.227 20.56c-.144.252-.332.613-.566 1.08l-.239.477-.273.549h-2.589a1.2 1.2 0 0 1-1.241-1.027l-4.153-21.639h-4.799l5.07 23.852a3.237 3.237 0 0 0 1.078 1.753 3.009 3.009 0 0 0 1.996.675h2.373a20.884 20.884 0 0 1-5.096 5.288 17.271 17.271 0 0 1-5.906 2.537l.863 3.292a19.359 19.359 0 0 0 9.357-4.371c2.642-2.268 5.348-5.973 8.116-11.117a82.388 82.388 0 0 0 7.982-21.909Zm28.593 0a73.066 73.066 0 0 1-5.015 15.272 44.905 44.905 0 0 1-4.585 8.257 7.663 7.663 0 0 1-2.185 2.103c-.923.476-1.955.7-2.993.649h-4.044a1.409 1.409 0 0 1-1.51-1.242l-5.124-25.039h4.8l3.991 22.665h.863a3.562 3.562 0 0 0 1.644-.324 4.337 4.337 0 0 0 1.322-1.241 39.495 39.495 0 0 0 4.046-7.717 55.454 55.454 0 0 0 4.044-13.383h4.746Zm1.622 26.28h4.53l3.667-26.28h-4.53l-3.667 26.28Zm8.467-37.45a1.28 1.28 0 0 1 1.052.43c.238.307.327.703.242 1.08l-.377 3.076a1.39 1.39 0 0 1-1.511 1.295h-2.102c-1.008 0-1.457-.503-1.348-1.511l.431-3.022a1.34 1.34 0 0 1 1.455-1.349h2.158Zm22.704 37.45h3.613l3.614-25.687a65.632 65.632 0 0 0-12.349-1.24 22.51 22.51 0 0 0-5.017.457 9.282 9.282 0 0 0-3.667 1.836 9.435 9.435 0 0 0-2.777 4.1 32.077 32.077 0 0 0-1.645 7.097c-.755 5.18-.593 8.823.485 10.928 1.078 2.104 3.2 3.157 6.364 3.157 4.422 0 8.323-1.978 11.702-5.936l-.323 5.288Zm.27-9.228 1.941-13.707c-2.588-.107-4.566-.161-5.932-.162-3.632 0-6.032.585-7.2 1.754-1.169 1.17-2.076 3.93-2.723 8.284-.54 3.957-.603 6.565-.189 7.824.413 1.26 1.536 1.89 3.371 1.89 3.128 0 6.705-1.961 10.732-5.883ZM111.826 79.848h2.035v-.031a10.847 10.847 0 0 0 10.068-9.343 10.852 10.852 0 0 0-7.152-11.728l-4.951 21.102Zm-14.187-3.83h-3.415l-3.77 3.83h-17.3l39.689-25.821 3.053 4.13-7.123 21.69H94.526l3.113-3.828Zm2.13-5.61 3.018-3.065h2.102l-2.493 3.064h-2.628Zm7.076-7.169h1.574l1.85-2.273h-1.184l-2.24 2.273Z" fill="#277DFF"></path><mask id="a" style="mask-type:alpha" maskUnits="userSpaceOnUse" x="55" y="35" width="232" height="55"><path fill-rule="evenodd" clip-rule="evenodd" d="M82.859 35.571c-7.19.98-12.598 7.053-12.75 14.313-7.863 0-14.239 6.707-14.239 14.98-.144 7.36 5.162 13.698 12.43 14.845l44.316-26.579a12.52 12.52 0 0 0-13.656-7.174C96.882 39 90.05 34.592 82.86 35.571Zm105.915 16.682a22.56 22.56 0 0 1-8.897 11.71c.578.977 1.1 1.986 1.563 3.023l5.178 11.548h-4.908l-5.339-12.412a68.056 68.056 0 0 1-6.525 3.022l-1.403 9.39h-4.529l5.285-37.775h4.584L171.356 59a32.053 32.053 0 0 1-1.618 6.26 37.088 37.088 0 0 0 9.222-5.72 16.116 16.116 0 0 0 5.124-7.286h4.69ZM151.92 68.549l-7.334-3.237a10.354 10.354 0 0 1-4.126-3.022 6.204 6.204 0 0 1-.89-4.48c.324-2.446 1.349-4.11 3.074-4.991 1.726-.882 4.369-1.286 7.928-1.214 3.698.05 7.39.32 11.056.81l-.594 3.291a632.814 632.814 0 0 0-10.354-.27 19.441 19.441 0 0 0-5.097.433 2.397 2.397 0 0 0-1.536 2.266 2.495 2.495 0 0 0 .485 2.212 9.923 9.923 0 0 0 2.697 1.619l7.334 3.238a11.023 11.023 0 0 1 4.422 2.968 5.972 5.972 0 0 1 .809 4.479 7.518 7.518 0 0 1-.917 2.914 6.289 6.289 0 0 1-1.644 1.888 6.894 6.894 0 0 1-2.535 1.08c-1.046.248-2.11.41-3.182.485-1.061.072-2.4.108-4.017.109-1.223 0-2.311-.027-3.263-.082-.953-.054-1.663-.099-2.131-.134a58.158 58.158 0 0 1-2.238-.244 854.524 854.524 0 0 1-2.4-.296l.539-3.346c2.158.181 4.962.271 8.414.27a26.133 26.133 0 0 0 6.795-.648 2.938 2.938 0 0 0 2.103-2.427 2.368 2.368 0 0 0-.216-1.62 2.611 2.611 0 0 0-.863-.944 16.105 16.105 0 0 0-1.726-.836 11.366 11.366 0 0 1-.593-.27Zm66.005-16.296h-4.746a80.067 80.067 0 0 1-7.227 20.56c-.144.252-.332.613-.566 1.08l-.239.477-.273.549h-2.589a1.2 1.2 0 0 1-1.241-1.027l-4.153-21.639h-4.799l5.07 23.852a3.237 3.237 0 0 0 1.078 1.753 3.009 3.009 0 0 0 1.996.675h2.373a20.884 20.884 0 0 1-5.096 5.288 17.271 17.271 0 0 1-5.906 2.537l.863 3.292a19.359 19.359 0 0 0 9.357-4.371c2.642-2.268 5.348-5.973 8.116-11.117a82.388 82.388 0 0 0 7.982-21.909Zm28.593 0a73.066 73.066 0 0 1-5.015 15.272 44.905 44.905 0 0 1-4.585 8.257 7.663 7.663 0 0 1-2.185 2.103c-.923.476-1.955.7-2.993.649h-4.044a1.409 1.409 0 0 1-1.51-1.242l-5.124-25.039h4.8l3.991 22.665h.863a3.562 3.562 0 0 0 1.644-.324 4.337 4.337 0 0 0 1.322-1.241 39.495 39.495 0 0 0 4.046-7.717 55.454 55.454 0 0 0 4.044-13.383h4.746Zm1.622 26.28h4.53l3.667-26.28h-4.53l-3.667 26.28Zm8.467-37.45a1.28 1.28 0 0 1 1.052.43c.238.307.327.703.242 1.08l-.377 3.076a1.39 1.39 0 0 1-1.511 1.295h-2.102c-1.008 0-1.457-.503-1.348-1.511l.431-3.022a1.34 1.34 0 0 1 1.455-1.349h2.158Zm22.704 37.45h3.613l3.614-25.687a65.632 65.632 0 0 0-12.349-1.24 22.51 22.51 0 0 0-5.017.457 9.282 9.282 0 0 0-3.667 1.836 9.435 9.435 0 0 0-2.777 4.1 32.077 32.077 0 0 0-1.645 7.097c-.755 5.18-.593 8.823.485 10.928 1.078 2.104 3.2 3.157 6.364 3.157 4.422 0 8.323-1.978 11.702-5.936l-.323 5.288Zm.27-9.228 1.941-13.707c-2.588-.107-4.566-.161-5.932-.162-3.632 0-6.032.585-7.2 1.754-1.169 1.17-2.076 3.93-2.723 8.284-.54 3.957-.603 6.565-.189 7.824.413 1.26 1.536 1.89 3.371 1.89 3.128 0 6.705-1.961 10.732-5.883ZM111.826 79.848h2.035v-.031a10.847 10.847 0 0 0 10.068-9.343 10.852 10.852 0 0 0-7.152-11.728l-4.951 21.102Zm-14.187-3.83h-3.415l-3.77 3.83h-17.3l39.689-25.821 3.053 4.13-7.123 21.69H94.526l3.113-3.828Zm2.13-5.61 3.018-3.065h2.102l-2.493 3.064h-2.628Zm7.076-7.169h1.574l1.85-2.273h-1.184l-2.24 2.273Z" fill="#fff"></path></mask><g mask="url(#a)"><path fill="#277DFF" d="M55 34h232v56H55z"></path></g></svg> 