<svg xmlns="http://www.w3.org/2000/svg" width="140" height="40" viewBox="0 0 140 40" fill="none">
<path d="M58.223 30.8609L55.9735 37.824H56.8443L57.4248 36.0107H60.1823L60.6902 37.824H61.6336L59.3841 30.8609H58.223ZM57.57 35.3579L58.731 31.5862L59.892 35.3579H57.57Z" fill="white"/>
<path d="M69.4697 30.8609H64.5353V31.5862H66.5671V37.824H67.4379V31.5862H69.3971L69.4697 30.8609Z" fill="white"/>
<path d="M73.3156 36.591V34.1249C73.3156 33.0369 72.7351 32.3841 71.5015 32.3841C70.921 32.3841 70.3404 32.5292 69.6874 32.7468L69.9051 33.3996C70.4856 33.182 70.921 33.1094 71.3563 33.1094C72.1545 33.1094 72.5174 33.3996 72.5174 34.1974V34.6326H71.6466C70.1953 34.6326 69.3245 35.2854 69.3245 36.3734C69.3245 37.3163 69.9776 37.9691 70.9935 37.9691C71.6466 37.9691 72.2271 37.7515 72.5899 37.1713C72.7351 37.679 73.0979 37.8966 73.6058 37.9691L73.8235 37.3889C73.4607 37.2438 73.3156 37.0987 73.3156 36.591ZM72.4448 36.4459C72.1545 37.0262 71.7192 37.3163 71.1386 37.3163C70.4856 37.3163 70.1953 36.9537 70.1953 36.3009C70.1953 35.503 70.7033 35.1404 71.7192 35.1404H72.5174L72.4448 36.4459Z" fill="white"/>
<path d="M76.4358 37.2438C76.1456 37.2438 76.073 37.0987 76.073 36.8086V30.2807L75.2022 30.3532V36.8086C75.2022 37.6064 75.5651 37.9691 76.2181 37.9691C76.5084 37.9691 76.7261 37.8966 76.9438 37.824L76.7261 37.2438C76.6535 37.2438 76.581 37.2438 76.4358 37.2438Z" fill="white"/>
<path d="M79.9189 32.3841C78.5402 32.3841 77.742 33.5446 77.742 35.2129C77.742 36.8811 78.6128 37.9691 80.0641 37.9691C80.7897 37.9691 81.3702 37.7515 81.8782 37.3163L81.5154 36.8086C81.08 37.0987 80.6446 37.3163 80.1366 37.3163C79.3384 37.3163 78.7579 36.8086 78.6128 35.503H82.0233C82.0233 35.3579 82.0233 35.2129 82.0233 35.0678C82.0959 33.3996 81.3702 32.3841 79.9189 32.3841ZM81.2977 34.8502H78.6853C78.7579 33.6172 79.2659 33.0369 79.9915 33.0369C80.8623 33.0369 81.2977 33.6897 81.2977 34.7052V34.8502Z" fill="white"/>
<path d="M86.1595 32.3841C85.4338 32.3841 84.8533 32.7468 84.4905 33.327L84.4179 32.5292H83.6923V37.824H84.563V33.9798C84.9259 33.3996 85.3613 32.9644 86.0143 32.9644C86.5949 32.9644 86.8851 33.2545 86.8851 34.0524V37.824H87.7559V33.9798C87.6833 32.9644 87.1754 32.3841 86.1595 32.3841Z" fill="white"/>
<path d="M92.8354 33.0369C92.4726 32.6742 92.0372 32.3841 91.3841 32.3841C90.0779 32.3841 89.2797 33.5446 89.2797 35.2129C89.2797 36.8811 90.0054 37.9691 91.3115 37.9691C91.9646 37.9691 92.5451 37.6064 92.8354 37.0987L92.9079 37.824H93.6336V30.3532L92.7628 30.2807L92.8354 33.0369ZM92.8354 36.4459C92.4726 36.9536 92.1097 37.3163 91.4567 37.3163C90.6584 37.3163 90.1505 36.6635 90.1505 35.2129C90.1505 33.7622 90.6584 33.1094 91.5292 33.1094C92.1097 33.1094 92.4726 33.3996 92.8354 33.8348V36.4459Z" fill="white"/>
<path d="M100.89 37.2438C99.8016 37.2438 98.9308 36.4459 98.9308 34.3425C98.9308 32.1665 99.8016 31.4412 100.963 31.4412C101.471 31.4412 101.906 31.5863 102.341 31.9489L102.849 31.3687C102.269 30.9335 101.833 30.7159 100.963 30.7159C99.3662 30.7159 98.06 31.9489 98.06 34.3425C98.06 36.6635 99.2936 37.9691 100.963 37.9691C101.906 37.9691 102.559 37.6064 102.922 37.1712L102.486 36.591C102.051 36.9536 101.616 37.2438 100.89 37.2438Z" fill="white"/>
<path d="M105.897 32.3841C104.373 32.3841 103.575 33.5446 103.575 35.2129C103.575 36.8811 104.446 37.9691 105.897 37.9691C107.421 37.9691 108.219 36.8086 108.219 35.1404C108.292 33.4721 107.421 32.3841 105.897 32.3841ZM105.897 37.2438C104.954 37.2438 104.446 36.591 104.446 35.1404C104.446 33.6897 104.954 33.0369 105.897 33.0369C106.84 33.0369 107.348 33.6897 107.348 35.1404C107.348 36.591 106.84 37.2438 105.897 37.2438Z" fill="white"/>
<path d="M115.185 32.3841C114.46 32.3841 113.952 32.8193 113.589 33.3996C113.371 32.7468 112.936 32.3841 112.283 32.3841C111.557 32.3841 111.122 32.7468 110.686 33.327L110.614 32.5292H109.888V37.824H110.759V33.9798C111.122 33.3996 111.484 32.9644 112.065 32.9644C112.5 32.9644 112.863 33.2545 112.863 34.0524V37.824H113.734V33.9798C114.097 33.3996 114.46 32.9644 115.04 32.9644C115.475 32.9644 115.838 33.2545 115.838 34.0524V37.824H116.709V33.9798C116.636 33.0369 116.056 32.3841 115.185 32.3841Z" fill="white"/>
<path d="M120.918 32.3841C120.265 32.3841 119.684 32.6743 119.321 33.2545L119.249 32.5292H118.523V40L119.394 39.9275V37.3889C119.757 37.824 120.192 38.0416 120.845 38.0416C122.224 38.0416 122.95 36.8811 122.95 35.2129C122.95 33.4721 122.369 32.3841 120.918 32.3841ZM120.628 37.2438C120.12 37.2438 119.684 37.0262 119.394 36.591V33.9073C119.684 33.4721 120.12 33.0369 120.7 33.0369C121.498 33.0369 121.934 33.6897 121.934 35.1404C122.006 36.591 121.498 37.2438 120.628 37.2438Z" fill="white"/>
<path d="M128.102 36.591V34.1249C128.102 33.0369 127.521 32.3841 126.288 32.3841C125.707 32.3841 125.127 32.5292 124.473 32.7468L124.691 33.3996C125.272 33.182 125.707 33.1094 126.142 33.1094C126.941 33.1094 127.303 33.3996 127.303 34.1974V34.6326H126.433C124.981 34.6326 124.111 35.2854 124.111 36.3734C124.111 37.3163 124.764 37.9691 125.78 37.9691C126.433 37.9691 127.013 37.7515 127.376 37.1713C127.521 37.679 127.884 37.8966 128.392 37.9691L128.61 37.3889C128.247 37.2438 128.102 37.0987 128.102 36.591ZM127.231 36.4459C126.941 37.0262 126.505 37.3163 125.925 37.3163C125.272 37.3163 124.981 36.9537 124.981 36.3009C124.981 35.503 125.489 35.1404 126.505 35.1404H127.231V36.4459Z" fill="white"/>
<path d="M132.528 32.3841C131.802 32.3841 131.222 32.7468 130.859 33.327L130.787 32.5292H130.061V37.824H130.932V33.9798C131.294 33.3996 131.73 32.9644 132.383 32.9644C132.963 32.9644 133.254 33.2545 133.254 34.0524V37.824H134.125V33.9798C134.125 32.9644 133.544 32.3841 132.528 32.3841Z" fill="white"/>
<path d="M138.841 32.5292L137.39 37.2438L135.939 32.5292H134.995L136.809 37.8966H137.1C136.809 38.767 136.519 39.2021 135.431 39.3472L135.503 40C136.955 39.7824 137.535 39.0571 137.898 37.8966L139.712 32.5292H138.841Z" fill="white"/>
<path d="M62.8663 9.75402C60.6894 9.10123 58.8027 8.44844 58.8027 6.19993C58.8027 4.31409 60.1089 3.08105 62.9389 3.08105C64.4627 3.08105 65.914 3.6613 65.914 3.6613L66.2043 6.345L68.0909 6.49006V1.99306C67.1476 1.6304 65.3335 1.05014 63.084 1.05014C59.3832 1.05014 56.3355 2.71838 56.3355 6.49006C56.3355 10.5519 59.4558 11.2047 62.2132 12.0751C64.3176 12.7278 66.1317 13.3806 66.1317 15.7742C66.1317 18.0952 64.4627 19.1832 61.7778 19.1832C60.254 19.1832 58.4399 18.748 58.0771 18.603L57.7142 15.7742H55.9001V20.1261C56.6983 20.5613 59.093 21.1416 61.5601 21.1416C65.4061 21.1416 68.6715 19.6184 68.6715 15.4841C68.5989 11.4223 65.5512 10.5519 62.8663 9.75402Z" fill="white"/>
<path d="M95.4477 19.1107C93.9238 19.1107 93.4885 18.4579 93.4885 16.7897V8.88365H97.6246V6.99781H93.7061C93.4885 6.99781 93.4885 6.92528 93.4885 6.70768V4.02399H91.892C91.892 4.02399 91.6018 7.28794 89.1346 7.28794V8.81112H90.8036C91.0213 8.81112 91.0213 8.88365 91.0213 9.10125V17.4425C91.0213 19.836 92.1823 21.0691 94.7221 21.0691C96.1008 21.0691 97.4069 20.6339 98.4228 20.2712L97.8423 18.5304C97.1892 18.8931 96.2459 19.1107 95.4477 19.1107Z" fill="white"/>
<path d="M76.3633 19.1107C74.8394 19.1107 74.404 18.4579 74.404 16.7897V8.88365H78.5402V6.99781H74.6217C74.404 6.99781 74.404 6.92528 74.404 6.70768V4.02399H72.8076C72.8076 4.02399 72.5174 7.28794 70.0502 7.28794V8.81112H71.7192C71.9369 8.81112 71.9369 8.88365 71.9369 9.10125V17.4425C71.9369 19.836 73.0979 21.0691 75.6376 21.0691C77.0164 21.0691 78.3225 20.6339 79.3384 20.2712L78.7579 18.5304C78.1048 18.8931 77.1615 19.1107 76.3633 19.1107Z" fill="white"/>
<path d="M84.4179 4.02398C85.5064 4.02398 86.1595 3.37119 86.1595 2.2832C86.1595 1.19522 85.5064 0.61496 84.4179 0.61496C83.3295 0.61496 82.6764 1.26775 82.6764 2.2832C82.6764 3.44372 83.3295 4.02398 84.4179 4.02398Z" fill="white"/>
<path d="M86.0143 6.9978H81.9507L81.733 8.44845L83.6197 8.73858V19.1107L81.3702 19.3283V20.7789H88.1913V19.3283L86.0143 19.1107V6.9978Z" fill="white"/>
<path d="M106.84 19.1107C104.228 19.1107 102.486 17.6601 102.486 13.8884C102.486 10.0442 104.373 8.66605 106.768 8.66605C107.493 8.66605 108.582 8.73858 108.945 8.88365L109.235 11.0596L111.049 11.1322V7.57807C110.469 7.28794 108.945 6.78021 106.985 6.78021C102.922 6.78021 99.9467 9.02871 99.9467 14.106C99.9467 18.3129 101.906 21.1416 106.477 21.1416C108.219 21.1416 110.033 20.7064 111.049 19.9811L110.251 18.2403C109.525 18.6755 108.146 19.1107 106.84 19.1107Z" fill="white"/>
<path d="M125.997 19.1832V11.6399C125.997 8.59351 124.764 6.7802 121.861 6.7802C119.829 6.7802 118.233 7.65059 116.999 8.52097V0.542419H112.863L112.645 1.99307L114.605 2.28319V19.1832L112.863 19.3283V20.7789H119.031V19.3283L117.072 19.1832V10.5519C118.088 9.75402 119.684 8.8111 121.281 8.8111C123.167 8.8111 123.53 10.4068 123.53 12.3652V19.1832L121.789 19.3283V20.7789H127.957V19.3283L125.997 19.1832Z" fill="white"/>
<path fill-rule="evenodd" clip-rule="evenodd" d="M40 15.8V0H0V21.4H27.5V24.2H0V40H40V18.6H12.5V15.8H40ZM20 35.9C18.9 35.9 18 35 18 33.9C18 32.8 18.9 31.9 20 31.9C21.1 31.9 22 32.8 22 33.9C22 35 21.1 35.9 20 35.9ZM28.8999 29.8H11.0999L11.9999 27H28.0999L28.8999 29.8ZM20 4.1C21.1 4.1 22 5 22 6.1C22 7.2 21.1 8.1 20 8.1C18.9 8.1 18 7.2 18 6.1C18 5 18.9 4.1 20 4.1ZM11.9999 13L11.0999 10.2H28.7999L28.0999 13H11.9999Z" fill="white"/>
</svg>
