<svg xmlns="http://www.w3.org/2000/svg" xmlns:xlink="http://www.w3.org/1999/xlink" width="141" zoomAndPan="magnify" viewBox="0 0 105.75 88.499997" height="118" preserveAspectRatio="xMidYMid meet" version="1.0"><defs><g/></defs><g fill="#000000" fill-opacity="1"><g transform="translate(16.057909, 56.784105)"><g><path d="M 36.0625 -20.671875 L 36.0625 -12.65625 C 35.101562 -8.269531 33.015625 -4.953125 29.796875 -2.703125 C 26.578125 -0.453125 22.984375 0.671875 19.015625 0.671875 C 14.035156 0.671875 9.789062 -1.191406 6.28125 -4.921875 C 2.78125 -8.648438 1.03125 -13.15625 1.03125 -18.4375 C 1.03125 -23.800781 2.742188 -28.332031 6.171875 -32.03125 C 9.597656 -35.726562 13.878906 -37.578125 19.015625 -37.578125 C 25.003906 -37.578125 29.742188 -35.472656 33.234375 -31.265625 L 27.734375 -25.234375 C 25.765625 -28.390625 23.019531 -29.96875 19.5 -29.96875 C 16.90625 -29.96875 14.691406 -28.84375 12.859375 -26.59375 C 11.023438 -24.34375 10.109375 -21.625 10.109375 -18.4375 C 10.109375 -15.300781 11.023438 -12.617188 12.859375 -10.390625 C 14.691406 -8.171875 16.90625 -7.0625 19.5 -7.0625 C 21.644531 -7.0625 23.515625 -7.707031 25.109375 -9 C 26.710938 -10.300781 27.515625 -12.03125 27.515625 -14.1875 L 19.015625 -14.1875 L 19.015625 -20.671875 Z M 36.0625 -20.671875 "/></g></g></g><g fill="#000000" fill-opacity="1"><g transform="translate(49.65346, 56.784105)"><g><path d="M 2.6875 -36.90625 L 14.140625 -36.90625 C 17.597656 -36.90625 20.351562 -36.164062 22.40625 -34.6875 C 24.46875 -33.21875 25.5 -30.828125 25.5 -27.515625 C 25.5 -23.816406 23.960938 -21.175781 20.890625 -19.59375 C 26.140625 -18.664062 28.765625 -15.5625 28.765625 -10.28125 C 28.765625 -7.1875 27.691406 -4.695312 25.546875 -2.8125 C 23.398438 -0.9375 20.445312 0 16.6875 0 L 2.6875 0 Z M 11.09375 -22.453125 L 11.765625 -22.453125 C 13.640625 -22.453125 15.039062 -22.78125 15.96875 -23.4375 C 16.894531 -24.09375 17.359375 -25.164062 17.359375 -26.65625 C 17.359375 -29.164062 15.492188 -30.421875 11.765625 -30.421875 L 11.09375 -30.421875 Z M 11.09375 -6.484375 L 13.734375 -6.484375 C 17.847656 -6.484375 19.90625 -7.859375 19.90625 -10.609375 C 19.90625 -12.242188 19.390625 -13.414062 18.359375 -14.125 C 17.328125 -14.84375 15.785156 -15.203125 13.734375 -15.203125 L 11.09375 -15.203125 Z M 11.09375 -6.484375 "/></g></g></g><g fill="#000000" fill-opacity="1"><g transform="translate(77.099886, 55.292532)"><g><path d="M 7.78125 -9.578125 C 9.21875 -9.578125 10.429688 -9.078125 11.421875 -8.078125 C 12.421875 -7.078125 12.921875 -5.859375 12.921875 -4.421875 C 12.921875 -3.023438 12.421875 -1.828125 11.421875 -0.828125 C 10.429688 0.171875 9.21875 0.671875 7.78125 0.671875 C 6.382812 0.671875 5.1875 0.171875 4.1875 -0.828125 C 3.1875 -1.828125 2.6875 -3.023438 2.6875 -4.421875 C 2.6875 -5.859375 3.1875 -7.078125 4.1875 -8.078125 C 5.1875 -9.078125 6.382812 -9.578125 7.78125 -9.578125 Z M 7.78125 -9.578125 "/></g></g></g></svg>